<svg width="33" height="29" viewBox="0 0 33 29" fill="none" xmlns="http://www.w3.org/2000/svg">
<path d="M0 2.58649C0 1.15608 1.17069 0 2.60896 0C4.04723 0 5.21792 1.16261 5.21792 2.58649C5.21792 3.625 4.60247 4.51329 3.71275 4.93131L9.15143 18.125V5.14032C7.90715 4.94437 6.95054 3.87973 6.95054 2.58649C6.95054 1.15608 8.12122 0 9.5595 0C10.9978 0 12.1685 1.16261 12.1685 2.58649C12.1685 3.625 11.553 4.51329 10.6633 4.93131L16.51 19.1113L22.3434 4.93131C21.4537 4.51982 20.8382 3.625 20.8382 2.58649C20.8382 1.15608 22.0089 0 23.4472 0C24.8855 0 26.0562 1.16261 26.0562 2.58649C26.0562 3.8732 25.0995 4.94437 23.8553 5.14032V18.1185L29.2939 4.92477C28.4042 4.51982 27.7821 3.625 27.7821 2.58649C27.7821 1.16261 28.9528 0 30.391 0C31.8293 0 33 1.16261 33 2.58649C33 3.8732 32.0434 4.94437 30.7991 5.14032V29H2.20089V5.14032C0.956615 4.94437 0 3.87973 0 2.58649ZM11.3456 2.58649C11.3456 1.60676 10.5429 0.803378 9.55281 0.803378C8.56274 0.803378 7.75998 1.60023 7.75998 2.58649C7.75998 3.66419 8.66308 4.36959 9.55281 4.36959C10.5094 4.36959 11.3456 3.59887 11.3456 2.58649ZM9.96087 5.36892V19.7709H15.8946L9.96087 5.36892ZM17.1054 19.7709H23.0391V5.36892L17.1054 19.7709ZM25.24 2.58649C25.24 1.60676 24.4373 0.803378 23.4472 0.803378C22.4571 0.803378 21.6544 1.60023 21.6544 2.58649C21.6544 3.59887 22.4973 4.36959 23.4472 4.36959C24.3503 4.36959 25.24 3.64459 25.24 2.58649ZM32.1906 2.58649C32.1906 1.60676 31.3878 0.803378 30.3977 0.803378C29.4077 0.803378 28.6049 1.60023 28.6049 2.58649C28.6049 3.59887 29.4478 4.36959 30.3977 4.36959C31.3008 4.36959 32.1906 3.64459 32.1906 2.58649ZM29.9897 5.36892L24.056 19.7709H29.9897V5.36892ZM16.9047 20.5743V23.9838H29.9897V20.5743H16.9047ZM3.01034 28.1966H29.9897V24.7872H3.01702V28.1966H3.01034ZM3.01034 23.9838H16.0953V20.5743H3.01034V23.9838ZM8.95074 19.7709L3.01702 5.36892V19.7709H8.95074ZM2.60227 4.36959C3.55889 4.36959 4.39509 3.59234 4.39509 2.58649C4.39509 1.60676 3.59234 0.803378 2.60227 0.803378C1.6122 0.803378 0.809444 1.60023 0.809444 2.58649C0.809444 3.66419 1.71255 4.36959 2.60227 4.36959Z" fill="black"/>
</svg>
